<?xml version="1.0" standalone="no"?>
<!DOCTYPE svg PUBLIC "-//W3C//DTD SVG 20010904//EN"
 "http://www.w3.org/TR/2001/REC-SVG-20010904/DTD/svg10.dtd">
<svg version="1.0" xmlns="http://www.w3.org/2000/svg"
 width="1024.000000pt" height="1024.000000pt" viewBox="0 0 1024.000000 1024.000000"
 preserveAspectRatio="xMidYMid meet">

<g transform="translate(0.000000,1024.000000) scale(0.100000,-0.100000)"
fill="#000000" stroke="none">
<path d="M0 5120 l0 -5120 5120 0 5120 0 0 5120 0 5120 -5120 0 -5120 0 0
-5120z m5119 3664 c2 -2 -36 -4 -85 -5 -51 0 -81 -4 -70 -8 19 -7 19 -8 1 -15
-16 -6 -17 -9 -5 -17 11 -6 12 -11 4 -16 -14 -10 -14 -1028 0 -1055 4 -10 14
-18 22 -18 8 0 14 -4 14 -8 0 -5 53 -12 118 -15 64 -4 133 -10 152 -13 l35 -6
-3 474 c-1 260 -3 521 -5 581 l-2 107 30 0 c79 -1 376 -52 525 -91 157 -42
182 -51 176 -64 -3 -9 2 -11 17 -8 21 5 21 5 3 -9 -13 -10 -17 -21 -12 -33 5
-15 4 -16 -9 -5 -9 7 -15 9 -13 4 1 -5 -17 -85 -40 -179 -22 -93 -55 -227 -72
-297 -16 -71 -43 -183 -60 -250 -25 -107 -64 -276 -75 -331 -3 -13 0 -17 10
-13 8 3 15 2 15 -3 0 -5 15 -14 33 -21 17 -7 65 -28 104 -46 40 -19 79 -34 86
-34 7 0 43 33 81 73 38 39 118 124 180 187 61 63 181 189 266 279 85 91 167
176 182 189 15 14 25 29 22 34 -3 5 -2 7 3 6 15 -5 95 81 87 93 -22 37 260
-159 403 -278 109 -91 220 -202 186 -184 -15 8 -23 8 -23 1 0 -5 -5 -10 -10
-10 -6 0 -191 -180 -412 -399 l-402 -399 70 -74 c38 -40 82 -90 98 -110 16
-21 32 -38 35 -38 4 0 95 87 203 193 242 238 469 459 573 556 44 41 73 71 65
66 -8 -5 -12 -4 -7 0 20 22 42 6 125 -93 262 -315 393 -516 516 -790 63 -139
110 -266 96 -257 -7 4 -1307 9 -1370 5 -10 -1 -9 -4 5 -10 17 -7 17 -9 3 -9
-22 -1 -22 -3 2 -50 27 -54 181 -521 180 -548 0 -2 0 -7 0 -13 0 -7 232 -10
675 -10 l675 0 5 -22 c12 -56 25 -157 25 -203 l0 -50 -39 -2 c-33 -2 -40 1
-51 25 -8 18 -14 22 -18 13 -2 -7 1 -17 8 -21 7 -4 11 -13 8 -20 -3 -9 -9 -8
-21 4 -12 13 -17 14 -17 4 0 -10 -3 -9 -11 2 -8 11 -9 5 -5 -25 5 -36 4 -37
-5 -12 -12 30 -29 36 -29 10 0 -15 -2 -16 -10 -3 -6 9 -5 17 2 21 14 9 3 25
-21 32 -13 3 -21 -1 -24 -15 -4 -13 -1 -18 8 -15 9 4 11 -1 7 -15 -4 -18 -6
-18 -14 -4 -5 9 -18 16 -28 16 -12 0 -20 7 -21 18 -1 15 -2 15 -6 -1 -4 -15
-11 -17 -31 -12 -15 4 -29 11 -30 16 -2 5 -8 6 -14 3 -6 -4 -6 -9 -1 -13 4 -3
6 -22 2 -41 -6 -32 -6 -32 -8 -7 -1 22 -5 27 -18 23 -10 -3 -30 1 -45 9 -16 7
-28 9 -28 4 0 -5 10 -14 23 -20 18 -8 18 -9 2 -6 -45 10 -50 13 -61 37 -7 16
-13 20 -18 12 -4 -7 -3 -12 1 -12 12 0 14 -38 2 -45 -5 -4 -9 1 -9 10 0 9 -5
13 -10 10 -6 -4 -8 -16 -4 -28 6 -19 5 -20 -9 -8 -13 10 -14 18 -6 32 7 15 6
19 -6 19 -9 0 -15 9 -16 23 0 21 -1 21 -8 2 -5 -11 -4 -21 0 -23 5 -2 8 -18 8
-35 l-1 -32 -8 30 c-5 22 -9 26 -14 15 -8 -20 -70 -25 -88 -7 -22 22 -48 28
-48 12 0 -16 -2 -17 -42 -20 -16 -1 -28 2 -28 6 0 5 5 9 10 9 6 0 10 7 10 15
0 8 -7 15 -17 15 -9 0 -13 -3 -10 -7 4 -3 -2 -13 -14 -21 -11 -8 -23 -11 -27
-7 -3 3 0 10 8 15 9 6 10 10 3 10 -24 0 -43 -13 -43 -29 0 -19 -36 -45 -45
-31 -3 5 4 14 15 20 11 6 18 15 15 21 -4 5 -11 7 -16 3 -5 -3 -17 0 -25 7 -12
10 -17 8 -29 -7 -8 -10 -15 -22 -15 -26 0 -18 -20 -6 -20 12 0 30 -17 24 -23
-9 -3 -16 -14 -31 -23 -35 -17 -7 -17 -6 -1 12 19 21 13 52 -10 52 -10 0 -12
-6 -8 -19 3 -11 1 -22 -5 -26 -6 -4 -10 -3 -9 2 3 20 -2 25 -16 13 -20 -16
-19 -3 0 17 19 18 16 44 -5 51 -12 4 -13 2 -2 -9 20 -21 14 -29 -20 -29 -30 0
-31 1 -12 15 10 8 14 15 8 15 -20 0 -36 -28 -29 -50 8 -26 -14 -58 -26 -38
-11 16 -11 29 -1 25 4 -1 8 2 10 8 6 16 -15 17 -31 1 -18 -18 -57 -10 -57 13
0 11 -6 7 -18 -11 -9 -16 -22 -28 -29 -28 -17 0 -17 -17 0 -24 6 -3 2 -3 -10
0 -13 3 -24 2 -24 -3 -1 -4 -4 -19 -6 -33 -3 -14 -4 -51 -3 -82 l1 -58 -30 0
c-28 0 -31 3 -31 31 0 16 -4 28 -9 25 -5 -4 -12 0 -14 6 -3 8 -6 6 -6 -4 -1
-21 -12 -23 -29 -6 -9 9 -12 7 -12 -10 0 -23 -14 -30 -23 -12 -3 6 -4 5 -3 -2
2 -8 19 -13 43 -13 23 0 39 -3 36 -7 -6 -11 -453 -10 -453 0 0 5 10 8 21 8 12
-1 24 6 26 14 4 12 3 13 -5 1 -20 -28 -41 -4 -45 51 -2 29 -4 -31 -5 -134 l-2
-188 953 -2 952 -3 3 -30 c2 -16 1 -76 -3 -132 -6 -92 -9 -103 -26 -103 -10 0
-19 -4 -19 -10 0 -5 5 -10 11 -10 5 0 7 -4 4 -10 -3 -5 -11 -10 -16 -10 -6 0
-7 5 -4 10 3 6 0 10 -9 10 -8 0 -16 3 -19 8 -2 4 -2 1 0 -7 2 -8 -2 -11 -13
-7 -8 3 -25 1 -37 -5 -15 -9 -22 -9 -25 -1 -2 6 -10 8 -18 5 -8 -3 -14 1 -14
11 0 13 -12 16 -72 14 -63 -1 -66 -2 -20 -5 31 -3 52 -9 52 -16 0 -7 4 -6 10
3 9 13 12 13 21 -2 5 -10 18 -18 27 -19 13 0 12 -3 -5 -11 -13 -6 -23 -14 -23
-18 0 -4 -12 -5 -27 -2 -22 4 -25 2 -21 -14 4 -15 -1 -19 -26 -21 -28 -2 -29
-1 -13 11 9 7 17 18 17 25 0 6 11 11 24 11 14 0 28 5 31 10 4 6 -8 10 -29 10
-25 0 -36 -4 -36 -15 0 -9 -10 -16 -27 -17 -16 0 -32 -2 -38 -3 -5 -2 -18 -3
-27 -4 -11 -1 -16 -8 -13 -22 3 -13 0 -19 -8 -16 -7 2 -11 11 -11 20 1 9 -2
15 -6 12 -5 -3 -11 -1 -15 5 -10 17 -25 11 -25 -9 0 -11 -5 -23 -12 -27 -6 -4
-8 -3 -4 4 11 18 -14 25 -33 8 -10 -9 -22 -16 -27 -16 -5 0 2 10 16 23 53 47
57 49 78 36 12 -7 27 -9 38 -4 18 8 17 9 -3 12 -13 3 -23 9 -23 14 0 5 -11 7
-24 3 -13 -3 -27 -1 -31 5 -7 13 -45 -4 -45 -20 0 -6 7 -6 19 1 25 13 31 13
31 0 0 -5 -6 -10 -14 -10 -8 0 -16 -5 -18 -10 -2 -6 -17 -12 -33 -13 -17 -1
-35 -9 -42 -17 -10 -13 -15 -13 -41 2 -16 10 -32 14 -36 11 -4 -4 -11 -1 -16
7 -7 12 -12 10 -29 -9 -12 -13 -25 -20 -32 -15 -8 4 -9 3 -5 -4 8 -14 4 -15
-18 -6 -9 3 -13 10 -10 15 6 10 -7 12 -30 3 -9 -3 -13 -10 -10 -15 3 -5 0 -9
-5 -9 -14 0 -14 6 0 31 9 18 8 19 -8 11 -10 -5 -24 -7 -30 -5 -7 3 -13 -3 -13
-12 0 -9 5 -13 10 -10 6 3 10 1 10 -4 0 -6 -16 -11 -35 -11 -19 0 -35 5 -35
10 0 6 7 10 15 10 17 0 18 2 9 24 -3 9 -10 16 -16 16 -5 0 -6 -5 -3 -10 3 -6
-1 -13 -9 -16 -9 -3 -13 -10 -10 -15 3 -5 -1 -9 -9 -9 -8 0 -18 -8 -22 -17 -6
-17 -7 -17 -16 -1 -6 11 -20 15 -43 14 -29 -3 -33 0 -33 20 0 13 6 24 16 26
12 3 10 5 -6 10 -16 4 -23 2 -23 -8 0 -19 -29 -18 -36 1 -4 8 -12 15 -20 15
-8 0 -14 6 -14 14 0 22 -30 28 -148 30 -68 2 -121 -2 -144 -10 -29 -10 -37
-10 -35 -1 1 9 -55 13 -224 15 l-226 2 -6 -127 c-7 -146 -29 -246 -80 -356
-66 -142 -179 -282 -307 -379 -85 -65 -245 -142 -345 -167 -162 -40 -237 -43
-1040 -39 -694 4 -777 6 -845 22 -361 86 -649 349 -752 688 -20 68 -22 98 -27
468 l-6 395 -958 3 -959 2 7 108 c9 155 42 387 70 499 34 134 75 214 149 287
120 120 278 163 441 121 179 -47 333 -213 367 -395 l12 -60 55 0 c31 0 77 -7
104 -15 26 -8 47 -10 47 -5 0 6 116 10 298 10 163 0 314 3 334 6 l36 6 5 272
c3 239 6 279 25 341 51 171 131 303 256 423 126 121 233 185 391 235 130 41
211 47 628 47 l392 0 -3 250 -3 250 -22 -4 c-12 -3 -62 -8 -112 -11 -423 -29
-875 -182 -1206 -410 l-77 -52 -411 411 c-226 227 -411 417 -411 423 0 15 194
166 315 246 141 92 381 215 570 290 385 154 759 237 1163 256 136 6 351 3 361
-5z m109 -11 c-10 -2 -28 -2 -40 0 -13 2 -5 4 17 4 22 1 32 -1 23 -4z m49 -9
c-3 -3 -12 -4 -19 -1 -8 3 -5 6 6 6 11 1 17 -2 13 -5z m1063 -254 c8 -5 11
-10 5 -10 -5 0 -17 5 -25 10 -8 5 -10 10 -5 10 6 0 17 -5 25 -10z m180 -86 c0
-2 -9 0 -20 6 -11 6 -20 13 -20 16 0 2 9 0 20 -6 11 -6 20 -13 20 -16z m80
-34 c8 -5 11 -10 5 -10 -5 0 -17 5 -25 10 -8 5 -10 10 -5 10 6 0 17 -5 25 -10z
m145 -88 c-3 -3 -11 0 -18 7 -9 10 -8 11 6 5 10 -3 15 -9 12 -12z m70 -32 c3
-6 -1 -7 -9 -4 -18 7 -21 14 -7 14 6 0 13 -4 16 -10z m-4193 -359 c2 -5 117
-125 256 -265 163 -165 251 -261 246 -269 -4 -6 -3 -8 1 -4 13 11 195 -173
188 -189 -6 -17 -26 -19 -20 -1 2 6 0 20 -5 30 -7 14 -11 15 -22 5 -11 -11
-11 -15 1 -23 12 -9 10 -14 -9 -30 -25 -21 -58 -29 -58 -13 0 5 -4 7 -10 3 -5
-3 -7 -12 -3 -20 3 -8 2 -15 -1 -15 -4 0 -11 12 -16 26 -8 20 -15 24 -31 19
-17 -6 -20 -3 -17 11 2 11 -5 27 -14 36 -19 19 -33 24 -23 8 3 -5 1 -19 -5
-31 -7 -11 -9 -23 -6 -26 3 -3 10 5 15 18 l9 24 7 -28 c9 -32 9 -32 -29 -41
-26 -6 -28 -5 -23 16 4 13 2 30 -3 38 -7 11 -10 5 -10 -23 0 -21 -4 -36 -8
-33 -5 3 -25 6 -45 8 -22 1 -37 7 -37 15 0 17 -17 17 -23 1 -4 -10 -8 -9 -17
2 -8 10 -13 11 -16 4 -5 -11 -51 0 -81 19 -9 5 -13 2 -13 -9 0 -13 -3 -14 -13
-5 -22 17 -28 1 -11 -30 15 -30 8 -39 -14 -17 -9 9 -12 8 -12 -8 0 -12 -56
-74 -144 -162 -135 -133 -174 -163 -160 -127 4 8 15 15 25 15 10 0 19 5 19 10
0 6 -12 10 -26 10 -19 0 -25 4 -20 15 6 17 4 18 -18 9 -9 -3 -16 -14 -16 -23
0 -14 -2 -14 -10 -1 -7 11 -4 18 11 25 11 6 16 14 13 18 -4 4 0 7 10 7 9 0 15
4 12 9 -8 12 19 33 29 23 5 -4 5 -2 2 4 -7 13 182 223 214 238 21 10 27 28 6
20 -8 -3 -57 40 -118 102 -57 59 -140 144 -184 188 -45 45 -87 89 -95 99 -13
17 -1 32 144 173 87 85 162 154 166 154 5 0 10 -4 12 -9z m3586 -12 c53 -18
65 -112 19 -144 -22 -16 -84 -20 -103 -7 -19 12 -34 50 -34 85 0 44 22 65 81
76 3 0 20 -4 37 -10z m-3378 -759 c-19 -13 -30 -13 -30 0 0 6 10 10 23 10 18
0 19 -2 7 -10z m320 -4 c0 -23 -16 -27 -17 -5 -1 10 2 19 8 19 5 0 9 -6 9 -14z
m160 10 c0 -3 -4 -8 -10 -11 -5 -3 -10 -1 -10 4 0 6 5 11 10 11 6 0 10 -2 10
-4z m-455 -36 c7 -12 -2 -12 -30 0 -19 8 -19 9 2 9 12 1 25 -3 28 -9z m15
-129 c0 -4 -7 -8 -15 -8 -16 0 -20 9 -9 20 8 8 24 -1 24 -12z m-50 -21 c-8 -6
-10 -10 -5 -10 6 0 17 4 25 10 9 6 20 5 29 -3 12 -9 13 -9 7 0 -5 9 -2 11 9 7
9 -4 14 -13 11 -20 -3 -8 -9 -21 -13 -31 -4 -11 -3 -14 5 -9 7 4 12 14 12 22
0 8 5 14 10 14 15 0 12 -16 -5 -34 -20 -20 -48 -9 -42 15 6 21 -3 25 -19 9
-13 -13 -44 -3 -44 14 0 15 22 38 29 30 3 -3 -1 -9 -9 -14z m-26 -52 c-4 -6
-1 -14 6 -18 7 -5 2 -7 -14 -7 -25 0 -26 1 -11 17 8 9 12 20 8 25 -5 4 -2 5 5
1 7 -4 9 -12 6 -18z m-424 -68 c0 -5 -5 -10 -11 -10 -5 0 -7 5 -4 10 3 6 8 10
11 10 2 0 4 -4 4 -10z m5859 -1341 c-15 -9 -32 -2 -24 11 3 5 13 6 21 3 12 -4
13 -8 3 -14z m316 11 c18 -8 17 -9 -7 -9 -16 -1 -28 4 -28 9 0 12 8 12 35 0z
m-255 -10 c0 -5 -7 -10 -15 -10 -8 0 -15 5 -15 10 0 6 7 10 15 10 8 0 15 -4
15 -10z m-860 -10 c0 -5 -5 -10 -11 -10 -5 0 -7 5 -4 10 3 6 8 10 11 10 2 0 4
-4 4 -10z m397 -27 c-10 -10 -17 -11 -21 -4 -4 6 0 11 8 11 9 0 16 8 17 18 0
11 2 13 6 4 3 -8 -1 -21 -10 -29z m663 16 c0 -6 -4 -7 -10 -4 -5 3 -10 11 -10
16 0 6 5 7 10 4 6 -3 10 -11 10 -16z m-248 -11 c-7 -7 -12 -8 -12 -2 0 14 12
26 19 19 2 -3 -1 -11 -7 -17z m-632 -3 c0 -8 -4 -15 -10 -15 -5 0 -10 7 -10
15 0 8 5 15 10 15 6 0 10 -7 10 -15z m457 -7 c-3 -8 -6 -5 -6 6 -1 11 2 17 5
13 3 -3 4 -12 1 -19z m63 10 c0 -11 -12 -10 -30 2 -12 7 -10 9 8 7 12 0 22 -5
22 -9z m-827 -11 c3 -7 -3 -13 -14 -13 -13 0 -15 3 -7 13 6 7 12 13 13 13 2 0
5 -6 8 -13z m427 3 c0 -5 -7 -10 -16 -10 -8 0 -12 5 -9 10 3 6 10 10 16 10 5
0 9 -4 9 -10z m440 0 c0 -5 -5 -10 -11 -10 -5 0 -7 5 -4 10 3 6 8 10 11 10 2
0 4 -4 4 -10z m172 -12 c-7 -7 -12 -8 -12 -2 0 14 12 26 19 19 2 -3 -1 -11 -7
-17z m-892 3 c0 -6 -4 -12 -8 -15 -5 -3 -9 1 -9 9 0 8 4 15 9 15 4 0 8 -4 8
-9z m-4695 -566 c64 -251 143 -431 292 -656 23 -36 43 -69 43 -73 0 -3 -364
-6 -810 -6 l-809 0 -16 53 c-25 89 -65 295 -80 422 -19 161 -35 376 -29 387 3
4 314 7 691 6 l686 -3 32 -130z m5753 -193 c2 -8 -3 -10 -14 -5 -12 4 -15 3
-10 -5 4 -7 1 -21 -7 -33 -8 -11 -18 -16 -21 -11 -3 6 -1 12 4 14 10 3 17 22
19 51 1 12 24 3 29 -11z m-65 -12 c-7 -25 -19 -34 -28 -20 -3 5 -2 10 4 10 6
0 8 7 5 15 -4 9 0 15 9 15 10 0 13 -7 10 -20z m92 0 c3 -5 1 -10 -4 -10 -6 0
-11 5 -11 10 0 6 2 10 4 10 3 0 8 -4 11 -10z m-635 -30 c0 -5 -4 -10 -10 -10
-5 0 -10 5 -10 10 0 6 5 10 10 10 6 0 10 -4 10 -10z m320 6 c0 -3 -4 -8 -10
-11 -5 -3 -10 -1 -10 4 0 6 5 11 10 11 6 0 10 -2 10 -4z m35 -6 c3 -5 2 -10
-4 -10 -5 0 -13 5 -16 10 -3 6 -2 10 4 10 5 0 13 -4 16 -10z m115 1 c0 -6 -4
-13 -10 -16 -5 -3 -10 1 -10 9 0 9 5 16 10 16 6 0 10 -4 10 -9z m-454 -39
c-23 -23 -33 -6 -10 19 12 13 20 16 22 9 3 -7 -3 -19 -12 -28z m97 18 c-3 -11
-7 -20 -9 -20 -2 0 -4 9 -4 20 0 11 4 20 9 20 5 0 7 -9 4 -20z m-932 -43 c-13
-13 -15 1 -4 30 7 17 8 17 11 -1 2 -10 -1 -23 -7 -29z m1076 21 c-3 -8 -6 -5
-6 6 -1 11 2 17 5 13 3 -3 4 -12 1 -19z m73 12 c0 -5 -5 -10 -11 -10 -5 0 -7
5 -4 10 3 6 8 10 11 10 2 0 4 -4 4 -10z m-553 -17 c3 -7 -4 -9 -16 -6 -12 3
-18 9 -15 15 7 11 26 6 31 -9z m43 7 c0 -5 -4 -10 -10 -10 -5 0 -10 5 -10 10
0 6 5 10 10 10 6 0 10 -4 10 -10z m85 0 c3 -5 1 -10 -4 -10 -6 0 -11 5 -11 10
0 6 2 10 4 10 3 0 8 -4 11 -10z m65 1 c0 -5 -7 -12 -16 -15 -24 -9 -28 -7 -14
9 14 17 30 20 30 6z m250 -2 c0 -5 -9 -9 -20 -9 -11 0 -20 4 -20 8 0 4 9 8 20
9 11 1 20 -2 20 -8z m-530 -3 c0 -3 -4 -8 -10 -11 -5 -3 -10 -1 -10 4 0 6 5
11 10 11 6 0 10 -2 10 -4z m390 0 c0 -11 -19 -15 -25 -6 -3 5 1 10 9 10 9 0
16 -2 16 -4z m-224 -44 c-15 -15 -15 -15 -4 10 7 15 15 23 17 17 2 -6 -4 -18
-13 -27z m274 18 c0 -5 -7 -7 -15 -4 -8 4 -15 8 -15 10 0 2 7 4 15 4 8 0 15
-4 15 -10z m-410 -4 c0 -11 -19 -15 -25 -6 -3 5 1 10 9 10 9 0 16 -2 16 -4z
m200 -10 c0 -3 -4 -8 -10 -11 -5 -3 -10 -1 -10 4 0 6 5 11 10 11 6 0 10 -2 10
-4z m160 0 c0 -2 -7 -7 -16 -10 -8 -3 -12 -2 -9 4 6 10 25 14 25 6z m-260 -26
c0 -5 -5 -10 -11 -10 -5 0 -7 5 -4 10 3 6 8 10 11 10 2 0 4 -4 4 -10z m-679
-23 c-10 -9 -11 -8 -5 6 3 10 9 15 12 12 3 -3 0 -11 -7 -18z m-3799 -534 c51
-50 56 -60 33 -60 -8 0 -11 5 -8 11 4 6 -35 -31 -86 -81 -52 -51 -98 -93 -102
-93 -5 0 -9 -4 -9 -9 0 -16 -79 -61 -96 -54 -13 5 -16 2 -12 -9 9 -23 -43 -10
-64 16 -11 13 -18 16 -18 7 0 -9 -6 -11 -17 -5 -23 10 -128 24 -225 30 -67 5
-78 8 -78 24 0 19 -30 23 -327 36 -79 4 -143 11 -143 15 0 5 -56 9 -125 9 -83
0 -125 4 -125 11 0 13 -92 9 -102 -5 -4 -6 -18 1 -35 18 -22 22 -33 26 -57 22
-31 -6 -66 15 -66 40 0 7 -5 16 -10 19 -6 4 -10 3 -9 -2 5 -30 -4 -32 -17 -4
-8 19 -12 41 -9 48 2 8 1 12 -4 9 -8 -5 -21 24 -21 49 0 7 286 9 842 7 l843
-2 47 -47z m3398 -37 c0 -2 -8 -10 -17 -17 -16 -13 -17 -12 -4 4 13 16 21 21
21 13z m-40 -56 c0 -5 -2 -10 -4 -10 -3 0 -8 5 -11 10 -3 6 -1 10 4 10 6 0 11
-4 11 -10z m-5018 -42 c-7 -7 -12 -8 -12 -2 0 14 12 26 19 19 2 -3 -1 -11 -7
-17z m18 -53 c0 -5 -5 -3 -10 5 -5 8 -10 20 -10 25 0 6 5 3 10 -5 5 -8 10 -19
10 -25z m4862 -57 c165 -174 289 -293 322 -310 99 -51 211 -203 242 -331 l16
-65 59 -7 c106 -12 227 -88 293 -183 43 -62 89 -183 75 -196 -9 -8 -10 -8 -5
2 6 9 -113 12 -578 12 -453 0 -586 -3 -586 -12 0 -7 20 -33 44 -58 24 -25 80
-85 123 -135 43 -49 82 -95 88 -101 5 -6 44 -49 85 -95 41 -46 101 -111 133
-145 l58 -62 -93 -50 c-472 -256 -1015 -411 -1568 -448 -58 -4 -130 -8 -160
-8 -55 -1 -55 -1 -58 32 -2 18 1 32 7 32 6 0 11 7 11 15 0 8 -4 15 -9 15 -4 0
-9 57 -10 128 0 70 -3 181 -6 247 -3 66 -3 397 1 736 l7 616 216 6 c307 8 474
35 731 119 167 54 394 171 493 254 16 13 31 24 33 24 3 0 19 -15 36 -32z
m-2926 -32 c1 -9 -2 -14 -6 -11 -5 3 -11 1 -15 -5 -3 -5 -12 -10 -18 -10 -7 0
-4 5 6 11 9 5 17 14 17 20 0 5 -12 1 -27 -8 l-28 -18 20 27 c21 28 46 25 51
-6z m-1073 -48 c33 -10 64 -15 69 -11 6 3 8 1 4 -5 -3 -6 4 -14 16 -18 13 -3
35 -15 50 -26 16 -11 32 -17 37 -13 5 3 13 0 17 -6 5 -8 2 -10 -7 -5 -8 4 -3
-1 11 -12 18 -15 28 -18 38 -10 9 8 11 7 7 -4 -4 -9 7 -27 29 -46 20 -17 36
-34 36 -38 0 -3 18 -26 40 -52 35 -39 86 -131 103 -184 5 -15 11 -14 57 8 28
14 90 34 138 45 111 27 239 22 362 -14 46 -14 89 -23 95 -20 5 4 7 3 3 -2 -4
-4 29 -29 74 -54 97 -54 245 -196 297 -284 39 -66 77 -157 86 -207 l6 -35
-868 2 -868 2 -73 83 c-142 161 -303 387 -418 587 l-48 83 77 75 c42 40 77 71
77 68 0 -3 19 7 43 23 23 17 61 35 84 42 23 7 40 16 38 21 -3 4 5 5 17 1 16
-4 19 -2 13 8 -5 8 -4 11 2 7 6 -4 30 -2 54 3 73 15 237 8 302 -12z m1151 0
c-5 -8 -1 -9 10 -5 9 4 15 3 11 -2 -3 -5 1 -11 7 -14 7 -2 2 -4 -12 -3 -20 1
-26 6 -26 23 0 12 4 19 8 17 5 -3 5 -10 2 -16z m-981 -5 c-7 -2 -19 -2 -25 0
-7 3 -2 5 12 5 14 0 19 -2 13 -5z m1061 -32 c4 -5 -3 -7 -14 -4 -23 6 -26 13
-6 13 8 0 17 -4 20 -9z m3677 -18 c13 -16 12 -17 -3 -4 -10 7 -18 15 -18 17 0
8 8 3 21 -13z m-3954 -39 c-3 -3 -12 -4 -19 -1 -8 3 -5 6 6 6 11 1 17 -2 13
-5z m3894 -401 c13 -16 12 -17 -3 -4 -10 7 -18 15 -18 17 0 8 8 3 21 -13z m80
-80 c13 -16 12 -17 -3 -4 -10 7 -18 15 -18 17 0 8 8 3 21 -13z m89 -88 c13
-14 21 -25 18 -25 -2 0 -15 11 -28 25 -13 14 -21 25 -18 25 2 0 15 -11 28 -25z
m111 -112 c13 -16 12 -17 -3 -4 -10 7 -18 15 -18 17 0 8 8 3 21 -13z"/>
<path d="M5567 7973 c-4 -6 -3 -21 1 -34 11 -29 21 -12 12 21 -3 15 -9 20 -13
13z"/>
<path d="M6505 7500 c-7 -31 9 -78 30 -86 21 -8 65 22 64 44 -1 15 -2 15 -6 0
-2 -9 -10 -18 -16 -21 -9 -3 -12 5 -9 29 3 21 0 34 -7 34 -6 0 -11 -5 -11 -11
0 -6 -9 -1 -19 12 l-19 24 -7 -25z"/>
<path d="M4070 6769 c-223 -60 -394 -229 -457 -450 -17 -60 -18 -122 -18 -914
0 -840 0 -851 21 -912 70 -203 231 -367 436 -441 l73 -27 797 -3 c897 -3 877
-4 1027 70 69 34 103 59 171 128 93 93 134 159 172 280 l23 75 0 845 c0 930 3
886 -62 1015 -73 145 -217 267 -383 327 l-65 23 -830 2 c-805 2 -832 1 -905
-18z m1110 -615 c254 -79 451 -276 531 -534 20 -64 24 -96 23 -210 0 -190 -38
-315 -138 -453 -137 -190 -317 -298 -548 -327 -175 -22 -344 13 -483 99 -189
117 -317 282 -371 481 -28 100 -26 300 4 404 40 139 94 229 202 336 108 108
174 150 297 192 142 47 349 52 483 12z"/>
<path d="M8457 5599 c7 -7 15 -10 18 -7 3 3 -2 9 -12 12 -14 6 -15 5 -6 -5z"/>
<path d="M7611 5564 c0 -11 3 -14 6 -6 3 7 2 16 -1 19 -3 4 -6 -2 -5 -13z"/>
<path d="M8484 5555 c0 -14 4 -25 9 -25 10 0 9 38 -2 44 -5 3 -8 -5 -7 -19z"/>
<path d="M8520 5560 c-13 -8 -12 -10 3 -10 9 0 17 5 17 10 0 12 -1 12 -20 0z"/>
<path d="M8285 5550 c3 -5 8 -10 11 -10 2 0 4 5 4 10 0 6 -5 10 -11 10 -5 0
-7 -4 -4 -10z"/>
<path d="M7790 5538 c0 -4 9 -8 20 -8 11 0 20 4 20 8 0 4 -9 8 -20 8 -11 0
-20 -4 -20 -8z"/>
<path d="M7900 5540 c0 -5 5 -10 11 -10 5 0 7 5 4 10 -3 6 -8 10 -11 10 -2 0
-4 -4 -4 -10z"/>
<path d="M8156 5537 c3 -10 9 -15 12 -12 3 3 0 11 -7 18 -10 9 -11 8 -5 -6z"/>
<path d="M7550 5530 c0 -6 7 -10 15 -10 8 0 15 2 15 4 0 2 -7 6 -15 10 -8 3
-15 1 -15 -4z"/>
<path d="M7785 5511 c-3 -5 -1 -12 5 -16 5 -3 10 1 10 9 0 18 -6 21 -15 7z"/>
<path d="M7870 5511 c0 -6 5 -13 10 -16 6 -3 10 1 10 9 0 9 -4 16 -10 16 -5 0
-10 -4 -10 -9z"/>
<path d="M7900 5500 c0 -13 11 -13 30 0 12 8 11 10 -7 10 -13 0 -23 -4 -23
-10z"/>
<path d="M7230 5480 c0 -5 5 -10 10 -10 6 0 10 5 10 10 0 6 -4 10 -10 10 -5 0
-10 -4 -10 -10z"/>
<path d="M6866 5311 c-3 -5 1 -11 9 -14 9 -4 12 -1 8 9 -6 16 -10 17 -17 5z"/>
<path d="M6962 5300 c-13 -12 -28 -17 -38 -13 -12 4 -15 3 -10 -5 9 -14 116
-16 116 -3 0 15 -18 23 -25 11 -3 -5 -16 -10 -28 -10 -21 1 -22 1 -3 15 11 8
17 17 15 20 -3 3 -15 -4 -27 -15z"/>
<path d="M7167 5290 c-3 -11 -1 -20 4 -20 5 0 9 9 9 20 0 11 -2 20 -4 20 -2 0
-6 -9 -9 -20z"/>
<path d="M6810 5280 c-11 -7 -2 -10 29 -10 48 0 51 4 11 13 -14 3 -32 2 -40
-3z"/>
<path d="M7680 4736 c0 -8 -6 -17 -12 -19 -8 -3 -6 -6 5 -6 11 -1 17 6 17 19
0 11 -2 20 -5 20 -3 0 -5 -6 -5 -14z"/>
<path d="M7777 4730 c3 -13 13 -20 27 -19 17 1 17 2 4 6 -10 2 -18 11 -18 19
0 8 -4 14 -9 14 -5 0 -7 -9 -4 -20z"/>
<path d="M8418 4738 c9 -9 15 -9 24 0 9 9 7 12 -12 12 -19 0 -21 -3 -12 -12z"/>
<path d="M7855 4702 c-18 -19 -28 -23 -33 -15 -4 7 -13 9 -20 4 -9 -5 -6 -11
11 -18 27 -13 39 -7 56 25 10 19 15 21 27 11 8 -7 14 -7 14 -1 0 23 -31 20
-55 -6z"/>
<path d="M7955 4720 c-8 -13 5 -13 25 0 13 8 13 10 -2 10 -9 0 -20 -4 -23 -10z"/>
<path d="M8170 4720 c0 -5 5 -10 11 -10 5 0 7 5 4 10 -3 6 -8 10 -11 10 -2 0
-4 -4 -4 -10z"/>
<path d="M7585 4710 c-18 -7 -19 -8 -2 -15 10 -4 17 -18 17 -32 0 -33 22 -25
26 9 2 20 -1 25 -12 21 -8 -3 -14 -1 -14 5 0 6 6 13 13 15 6 3 8 5 2 6 -5 0
-19 -4 -30 -9z"/>
<path d="M7718 4713 c12 -2 20 -8 17 -13 -3 -5 -1 -11 4 -14 5 -3 11 3 14 14
4 17 0 20 -26 19 -24 -1 -26 -3 -9 -6z"/>
<path d="M8018 4713 c7 -3 16 -2 19 1 4 3 -2 6 -13 5 -11 0 -14 -3 -6 -6z"/>
<path d="M8200 4708 c0 -11 8 -18 20 -18 11 0 20 5 20 11 0 5 -5 7 -11 3 -6
-3 -15 0 -20 7 -7 11 -9 10 -9 -3z"/>
<path d="M8255 4709 c-4 -6 -5 -13 -2 -16 7 -7 27 6 27 18 0 12 -17 12 -25 -2z"/>
<path d="M7990 4700 c0 -6 7 -13 15 -17 24 -9 27 1 5 15 -13 8 -20 8 -20 2z"/>
<path d="M7960 4675 c7 -9 15 -13 17 -11 7 7 -7 26 -19 26 -6 0 -6 -6 2 -15z"/>
<path d="M3200 7296 c0 -2 8 -10 18 -17 15 -13 16 -12 3 4 -13 16 -21 21 -21
13z"/>
<path d="M3234 7252 c4 -7 2 -26 -5 -42 -11 -25 -18 -28 -44 -24 -21 4 -26 3
-15 -4 22 -14 70 -24 71 -15 1 5 3 18 4 29 1 12 5 26 8 32 4 5 -1 16 -10 23
-12 10 -15 10 -9 1z"/>
<path d="M3185 7242 c-2 -3 -2 -8 1 -13 5 -9 34 -1 34 10 0 8 -27 10 -35 3z"/>
<path d="M2875 7200 c-3 -5 -1 -10 4 -10 6 0 11 5 11 10 0 6 -2 10 -4 10 -3 0
-8 -4 -11 -10z"/>
<path d="M2910 7190 c0 -5 5 -10 10 -10 6 0 10 5 10 10 0 6 -4 10 -10 10 -5 0
-10 -4 -10 -10z"/>
<path d="M2704 7173 c4 -7 16 -18 27 -23 15 -9 19 -7 19 6 0 10 -6 14 -14 11
-7 -3 -19 0 -26 6 -10 9 -11 9 -6 0z"/>
<path d="M5178 1573 c7 -3 16 -2 19 1 4 3 -2 6 -13 5 -11 0 -14 -3 -6 -6z"/>
<path d="M4973 1563 c9 -2 25 -2 35 0 9 3 1 5 -18 5 -19 0 -27 -2 -17 -5z"/>
</g>
</svg>
