<?xml version="1.0" standalone="no"?>
<!DOCTYPE svg PUBLIC "-//W3C//DTD SVG 20010904//EN"
 "http://www.w3.org/TR/2001/REC-SVG-20010904/DTD/svg10.dtd">
<svg version="1.0" xmlns="http://www.w3.org/2000/svg"
 width="300.000000pt" height="300.000000pt" viewBox="0 0 300.000000 300.000000"
 preserveAspectRatio="xMidYMid meet">
<metadata>
Created by potrace 1.10, written by Peter Selinger 2001-2011
</metadata>
<g transform="translate(0.000000,300.000000) scale(0.100000,-0.100000)"
fill="#000000" stroke="none">
<path d="M1340 2600 c-210 -21 -416 -105 -551 -224 -32 -28 -70 -61 -86 -72
-15 -12 -39 -41 -52 -65 -29 -52 -17 -44 60 36 l48 50 125 -125 126 -124 -33
-36 c-18 -19 -40 -44 -47 -54 -14 -17 -13 -18 7 -12 l22 7 -20 -55 c-10 -31
-19 -76 -19 -100 0 -25 -4 -56 -10 -71 -9 -25 -11 -25 -87 -21 -71 5 -80 8
-98 33 -11 15 -37 45 -58 66 -37 38 -38 40 -20 57 10 9 21 16 25 14 9 -6 158
139 158 153 0 33 -27 14 -119 -80 l-101 -104 -52 5 c-65 5 -108 -21 -150 -88
-51 -82 -61 -233 -18 -270 18 -16 18 -17 -1 -33 -17 -15 -24 -40 -20 -72 7
-66 57 -274 72 -300 3 -5 16 -42 28 -80 57 -181 230 -352 496 -490 215 -112
466 -146 711 -96 151 31 374 127 357 154 -4 6 0 8 10 4 10 -3 17 -2 17 3 0 6
5 10 11 10 13 0 83 55 137 106 52 50 22 48 -39 -2 -77 -64 -173 -131 -230
-160 -125 -63 -339 -114 -481 -114 -155 0 -342 43 -485 111 -82 39 -217 133
-263 184 l-25 28 25 -9 c14 -4 119 -10 235 -11 115 -2 214 -8 219 -13 6 -6 2
-18 -11 -32 -35 -40 -106 -141 -95 -137 18 7 125 163 124 182 0 10 4 15 10 11
6 -4 8 -3 5 3 -10 16 24 21 101 16 41 -3 78 0 89 6 14 8 -4 10 -73 11 -75 0
-94 3 -107 18 -10 10 -17 23 -17 28 0 22 -75 96 -120 119 -38 19 -66 25 -129
26 -79 2 -96 9 -103 39 -7 34 -101 74 -174 74 -64 0 -125 -27 -138 -61 -10
-26 -1 -26 38 1 79 53 170 42 242 -29 24 -25 44 -52 44 -61 0 -11 5 -14 18 -9
78 32 143 26 215 -21 37 -25 97 -105 97 -131 0 -11 -49 -13 -257 -11 l-257 3
-58 75 c-55 72 -151 247 -163 300 l-6 25 247 -3 247 -3 60 -50 c66 -55 105
-77 193 -110 46 -17 75 -40 148 -113 50 -50 97 -100 103 -111 10 -16 12 0 12
86 l1 106 98 6 c112 6 203 32 282 79 l55 33 82 -81 c45 -45 85 -93 88 -107 4
-16 16 -28 33 -32 40 -10 78 -41 92 -76 9 -22 18 -29 31 -26 10 3 20 0 22 -6
6 -20 106 78 134 133 10 19 21 37 24 40 10 8 30 50 34 70 2 10 15 43 29 75 33
71 75 231 82 310 5 54 3 63 -19 86 -24 25 -24 26 -6 37 36 23 19 194 -23 240
-23 24 -24 30 -13 56 17 41 0 111 -51 205 -50 94 -251 317 -312 346 -23 11
-42 26 -42 33 0 7 -5 10 -10 7 -6 -3 -13 1 -16 9 -3 9 -12 16 -20 16 -8 0 -14
5 -14 11 0 5 -5 7 -11 3 -6 -3 -14 -3 -18 2 -3 5 -35 24 -71 41 -83 41 -237
81 -365 94 -55 5 -107 11 -115 13 -8 2 -49 0 -90 -4z m342 -50 c268 -59 504
-224 667 -466 42 -62 121 -229 121 -255 0 -6 -80 -9 -200 -7 -129 2 -200 -1
-200 -7 0 -5 3 -20 6 -32 6 -23 7 -23 209 -23 l203 0 11 -67 c5 -38 12 -87 13
-110 l4 -43 -279 0 c-274 0 -278 0 -267 20 6 11 10 35 8 53 -1 18 2 39 7 46 5
10 4 12 -3 7 -8 -5 -12 0 -12 13 0 12 3 21 8 21 4 0 6 39 4 87 -5 112 -31 174
-106 248 -55 53 -90 71 -158 79 -21 2 -42 7 -48 11 -5 3 -10 2 -10 -3 0 -9
-61 -7 -87 3 -7 2 -13 1 -13 -3 0 -4 -16 -7 -35 -6 -19 1 -42 -4 -52 -12 -16
-11 -1 -13 108 -14 153 0 209 -14 273 -71 91 -80 91 -80 91 -429 0 -345 0
-346 -81 -426 -75 -76 -115 -84 -413 -84 -296 0 -321 5 -400 76 -27 25 -60 66
-73 92 -22 46 -23 54 -23 337 l0 290 28 57 c30 61 65 96 131 131 36 19 60 22
189 25 l147 4 0 74 c0 72 -1 74 -22 70 -13 -3 -45 -8 -73 -11 -78 -11 -194
-51 -259 -90 l-60 -36 -123 124 -124 123 58 43 c113 84 305 159 463 181 91 12
269 3 372 -20z m-266 -376 c4 -14 3 -29 -2 -34 -5 -4 -68 -10 -140 -12 l-131
-3 37 21 c20 12 50 24 66 28 16 4 45 11 64 15 19 5 50 9 67 10 27 1 34 -3 39
-25z m-796 -349 c33 -17 64 -58 73 -96 l7 -27 115 1 c64 0 118 -3 121 -5 2 -3
0 -16 -5 -30 -10 -27 -9 -70 3 -105 l7 -23 -275 0 -276 0 0 24 c0 43 28 174
44 204 35 68 117 93 186 57z m288 -332 c12 -23 10 -209 -2 -220 -5 -4 -6 -3
-3 4 4 6 1 18 -7 25 -7 8 -17 24 -20 36 -4 12 -11 22 -15 22 -4 0 -13 24 -20
54 -7 30 -19 60 -26 66 -23 19 -8 30 40 30 32 0 47 -5 53 -17z m-98 -65 c15
-61 39 -116 72 -166 15 -24 28 -45 28 -48 0 -2 -108 -4 -240 -4 l-239 0 -10
38 c-10 36 -31 180 -31 208 0 12 34 14 205 14 l204 0 11 -42z m1698 -35 c-12
-115 -43 -234 -83 -320 -33 -71 -153 -263 -165 -263 -3 0 -79 74 -168 163
l-164 164 52 67 c28 38 64 95 81 127 l29 59 -63 0 -62 0 0 40 0 40 275 0 276
0 -8 -77z m-478 -52 c0 -11 -11 -33 -24 -48 l-25 -28 5 40 c4 36 17 54 37 55
4 0 7 -9 7 -19z m-565 -311 c3 -5 15 -10 26 -10 14 0 18 4 13 13 -6 9 -4 9 8
-1 9 -7 28 -11 42 -8 14 3 26 0 26 -5 0 -5 -29 -9 -64 -9 -76 0 -86 -9 -95
-84 l-6 -54 -90 84 -90 84 112 0 c64 0 114 -4 118 -10z"/>
<path d="M1454 2455 c0 -55 1 -76 3 -47 2 29 2 74 0 100 -2 26 -3 2 -3 -53z"/>
<path d="M1196 2410 c-28 -33 -25 -54 9 -82 27 -23 61 -22 85 2 39 39 11 110
-44 110 -15 0 -34 -12 -50 -30z m78 -9 c31 -34 0 -80 -45 -66 -27 9 -34 43
-13 66 9 10 22 19 29 19 7 0 20 -9 29 -19z"/>
<path d="M907 2362 c-23 -25 -21 -39 7 -57 28 -19 50 -12 64 20 9 18 7 26 -7
39 -23 21 -44 20 -64 -2z m51 -16 c6 -29 -15 -43 -35 -24 -14 14 -14 20 -3 33
16 19 34 15 38 -9z"/>
<path d="M1359 2341 c-20 -16 -22 -23 -13 -38 21 -34 84 -24 84 14 0 16 -24
43 -38 43 -5 0 -20 -9 -33 -19z m48 -17 c8 -22 -18 -37 -36 -20 -7 8 -10 19
-7 25 10 16 36 13 43 -5z"/>
<path d="M1073 2332 c-31 -5 -63 -49 -63 -87 0 -38 35 -75 72 -75 36 0 88 45
88 77 0 51 -48 93 -97 85z m57 -42 c11 -11 20 -29 20 -40 0 -11 -9 -29 -20
-40 -11 -11 -29 -20 -40 -20 -11 0 -29 9 -40 20 -11 11 -20 29 -20 40 0 11 9
29 20 40 11 11 29 20 40 20 11 0 29 -9 40 -20z"/>
<path d="M1776 2318 c-9 -12 -16 -26 -16 -30 0 -16 43 -46 59 -41 13 5 12 2
-4 -18 -10 -13 6 1 38 31 31 30 57 56 57 59 0 3 -13 -8 -30 -24 -28 -27 -30
-27 -30 -8 0 24 -25 53 -45 53 -8 0 -21 -10 -29 -22z m52 -25 c4 -25 -22 -37
-38 -17 -10 11 -10 17 0 29 17 20 34 14 38 -12z"/>
<path d="M1540 2256 c0 -9 -4 -16 -10 -16 -5 0 -10 4 -10 9 0 5 -11 8 -25 7
-26 -1 -36 -16 -11 -16 7 0 28 -3 45 -6 24 -5 31 -3 31 9 0 9 -4 19 -10 22 -5
3 -10 -1 -10 -9z"/>
<path d="M2251 2078 c-17 -17 -31 -36 -31 -41 0 -5 -7 -7 -15 -4 -31 12 -112
-22 -149 -63 -40 -45 -45 -69 -18 -93 16 -15 45 -17 193 -17 139 0 179 3 195
15 17 13 -4 14 -188 15 l-207 0 21 36 c32 54 73 76 134 71 50 -3 52 -3 63 29
7 18 26 44 42 59 26 21 28 25 11 25 -11 0 -34 -14 -51 -32z"/>
<path d="M1165 1971 c-48 -22 -79 -54 -100 -103 -12 -30 -15 -83 -15 -275 0
-133 5 -254 10 -275 14 -48 53 -94 102 -119 37 -19 55 -20 303 -17 295 3 284
1 349 82 l31 38 3 256 c2 142 0 272 -3 290 -8 46 -77 119 -124 132 -20 5 -144
10 -276 10 -212 0 -245 -3 -280 -19z m582 -47 c63 -47 65 -59 65 -341 l-1
-256 -27 -39 c-46 -65 -67 -70 -335 -70 -271 0 -295 6 -337 80 -21 38 -22 49
-22 288 0 239 1 251 23 288 42 74 57 77 349 74 243 -3 258 -4 285 -24z"/>
<path d="M1390 1841 c-49 -10 -94 -35 -130 -73 -44 -46 -59 -79 -68 -146 -16
-119 34 -215 143 -275 32 -17 56 -22 120 -22 69 1 86 4 126 28 83 49 128 119
136 214 4 48 1 68 -20 115 -55 123 -175 185 -307 159z m148 -47 c124 -51 176
-192 116 -313 -48 -96 -146 -142 -252 -120 -96 19 -182 126 -182 224 0 80 61
173 134 206 50 23 134 24 184 3z"/>
<path d="M2193 1703 c53 -2 141 -2 195 0 53 1 9 3 -98 3 -107 0 -151 -2 -97
-3z"/>
<path d="M807 1645 c13 -25 21 -45 16 -45 -4 -1 -93 -1 -198 0 -104 0 -196 -4
-203 -9 -22 -14 23 -18 191 -20 189 -1 221 5 225 42 4 30 -9 52 -39 68 -14 7
-13 1 8 -36z"/>
<path d="M2358 1383 c18 -2 45 -2 60 0 15 2 0 4 -33 4 -33 0 -45 -2 -27 -4z"/>
<path d="M2209 1215 c96 -109 181 -191 181 -177 0 7 -33 45 -72 83 -180 173
-176 170 -109 94z"/>
<path d="M2134 1099 c-6 -11 42 -69 58 -69 20 0 19 33 -2 56 -25 26 -45 31
-56 13z"/>
<path d="M675 2199 c-5 -8 -4 -10 3 -5 7 4 12 2 12 -4 0 -6 9 -20 20 -32 10
-12 17 -25 14 -30 -3 -5 -2 -8 3 -7 28 5 19 -12 -40 -74 -15 -16 -26 -32 -23
-34 3 -3 -8 -16 -25 -30 -16 -14 -34 -34 -40 -46 -11 -20 -11 -20 18 1 31 22
163 161 163 172 0 3 -22 27 -49 54 -34 34 -51 44 -56 35z"/>
<path d="M800 1964 c-69 -71 -65 -74 13 -12 41 32 52 36 69 27 28 -15 30 -8 4
23 l-22 28 -64 -66z"/>
<path d="M1824 1018 c-17 -12 -40 -36 -51 -53 -18 -27 -30 -33 -73 -39 -41 -6
-58 -14 -90 -46 -49 -49 -58 -80 -33 -109 17 -21 26 -22 150 -20 95 1 137 -1
148 -11 10 -9 19 -9 28 -2 6 6 67 12 134 14 80 2 126 7 135 16 10 9 -48 12
-290 12 -166 0 -302 2 -302 5 0 15 31 63 55 85 22 21 36 25 86 25 46 0 59 3
59 15 0 26 38 79 69 95 17 8 47 15 68 15 28 0 34 3 23 10 -25 16 -83 10 -116
-12z"/>
<path d="M1277 674 c-4 -4 -7 -16 -7 -26 0 -14 6 -19 23 -16 14 2 22 10 22 23
0 20 -25 32 -38 19z"/>
</g>
</svg>
